<svg xmlns="http://www.w3.org/2000/svg" viewBox="0 0 900 1200" role="img" aria-labelledby="title desc">
  <title id="title">Cotton Shirt Product Image 01</title>
  <desc id="desc">Blue cotton shirt flat-lay style product photo illustration.</desc>
  <defs>
    <linearGradient id="bg" x1="0" y1="0" x2="1" y2="1">
      <stop offset="0%" stop-color="#d8d8d8"/>
      <stop offset="100%" stop-color="#c6c6c6"/>
    </linearGradient>
    <linearGradient id="fabric" x1="0" y1="0" x2="0" y2="1">
      <stop offset="0%" stop-color="#5f84a7"/>
      <stop offset="100%" stop-color="#3c6282"/>
    </linearGradient>
    <filter id="shadow" x="-20%" y="-20%" width="140%" height="140%">
      <feDropShadow dx="0" dy="14" stdDeviation="16" flood-color="#4a4a4a" flood-opacity="0.28"/>
    </filter>
  </defs>

  <rect width="900" height="1200" fill="url(#bg)"/>

  <g transform="translate(450 140)" stroke-linecap="round" stroke-linejoin="round" filter="url(#shadow)">
    <path d="M0 0 C-10 28 -8 63 0 84 C8 63 10 28 0 0Z" fill="#7f8b95"/>
    <path d="M-8 82 L-8 126" stroke="#70635a" stroke-width="8"/>
    <path d="M-8 126 C10 132 26 148 24 168" stroke="#70635a" stroke-width="8" fill="none"/>
  </g>

  <g transform="translate(450 250)" filter="url(#shadow)">
    <path d="M-230 120 L-370 380 L-300 450 L-195 290 L-185 800 C-70 860 80 860 190 800 L200 290 L305 450 L372 380 L230 120 C178 110 122 90 88 58 C62 34 32 20 0 20 C-32 20 -62 34 -88 58 C-122 90 -178 110 -230 120Z" fill="url(#fabric)"/>
    <path d="M-78 60 L0 142 L78 60" fill="#456d90"/>
    <path d="M-40 140 L40 140 L24 200 L-24 200Z" fill="#3f6688"/>
    <path d="M0 140 L0 810" stroke="#2f4e67" stroke-width="6"/>

    <g fill="#dce7f0" opacity="0.95">
      <circle cx="-120" cy="220" r="4"/><circle cx="-35" cy="270" r="4"/><circle cx="60" cy="255" r="4"/>
      <circle cx="130" cy="320" r="4"/><circle cx="-170" cy="360" r="4"/><circle cx="-60" cy="390" r="4"/>
      <circle cx="40" cy="420" r="4"/><circle cx="150" cy="450" r="4"/><circle cx="-150" cy="520" r="4"/>
      <circle cx="-20" cy="540" r="4"/><circle cx="95" cy="570" r="4"/><circle cx="-110" cy="650" r="4"/>
      <circle cx="10" cy="680" r="4"/><circle cx="130" cy="710" r="4"/>
    </g>

    <g fill="#d3dce4">
      <circle cx="0" cy="210" r="9"/><circle cx="0" cy="280" r="9"/><circle cx="0" cy="350" r="9"/>
      <circle cx="0" cy="420" r="9"/><circle cx="0" cy="490" r="9"/><circle cx="0" cy="560" r="9"/>
      <circle cx="0" cy="630" r="9"/><circle cx="0" cy="700" r="9"/>
    </g>

    <rect x="55" y="285" width="128" height="102" rx="8" fill="#4a7294" stroke="#2f4e67" stroke-width="3"/>
    <line x1="55" y1="285" x2="183" y2="387" stroke="#2f4e67" stroke-width="3"/>
  </g>
</svg>
