<svg xmlns="http://www.w3.org/2000/svg" viewBox="0 0 900 1200" role="img" aria-labelledby="title desc">
  <title id="title">Cotton Shirt Product Image 02</title>
  <desc id="desc">Blue cotton shirt alternate flat-lay style product image illustration.</desc>
  <defs>
    <linearGradient id="bg2" x1="0" y1="0" x2="1" y2="1">
      <stop offset="0%" stop-color="#dedede"/>
      <stop offset="100%" stop-color="#cbcbcb"/>
    </linearGradient>
    <linearGradient id="fabric2" x1="0" y1="0" x2="0" y2="1">
      <stop offset="0%" stop-color="#6d93b5"/>
      <stop offset="100%" stop-color="#426a8b"/>
    </linearGradient>
    <filter id="s2" x="-20%" y="-20%" width="140%" height="140%">
      <feDropShadow dx="0" dy="14" stdDeviation="16" flood-color="#4d4d4d" flood-opacity="0.26"/>
    </filter>
  </defs>

  <rect width="900" height="1200" fill="url(#bg2)"/>

  <g transform="translate(450 150)" stroke-linecap="round" stroke-linejoin="round" filter="url(#s2)">
    <path d="M0 0 C-9 24 -8 56 0 77 C8 56 9 24 0 0Z" fill="#808b95"/>
    <path d="M-7 76 L-7 116" stroke="#6f6259" stroke-width="7"/>
    <path d="M-7 116 C8 122 22 136 20 153" stroke="#6f6259" stroke-width="7" fill="none"/>
  </g>

  <g transform="translate(450 255)" filter="url(#s2)">
    <path d="M-225 118 L-358 370 L-292 438 L-185 286 L-174 804 C-66 852 70 854 178 804 L188 286 L296 438 L362 370 L228 118 C170 112 122 90 85 56 C57 32 28 20 0 20 C-28 20 -57 32 -85 56 C-122 90 -170 112 -225 118Z" fill="url(#fabric2)"/>
    <path d="M-76 58 L0 136 L76 58" fill="#50789b"/>
    <path d="M-36 134 L36 134 L22 188 L-22 188Z" fill="#4b7294"/>
    <path d="M0 134 L0 808" stroke="#375874" stroke-width="5"/>

    <g fill="#e2ebf3" opacity="0.95">
      <rect x="-166" y="228" width="7" height="7" rx="2"/>
      <rect x="-120" y="306" width="7" height="7" rx="2"/>
      <rect x="-54" y="256" width="7" height="7" rx="2"/>
      <rect x="20" y="310" width="7" height="7" rx="2"/>
      <rect x="90" y="250" width="7" height="7" rx="2"/>
      <rect x="138" y="344" width="7" height="7" rx="2"/>
      <rect x="-150" y="420" width="7" height="7" rx="2"/>
      <rect x="-76" y="486" width="7" height="7" rx="2"/>
      <rect x="8" y="446" width="7" height="7" rx="2"/>
      <rect x="104" y="506" width="7" height="7" rx="2"/>
      <rect x="-132" y="586" width="7" height="7" rx="2"/>
      <rect x="-40" y="642" width="7" height="7" rx="2"/>
      <rect x="58" y="610" width="7" height="7" rx="2"/>
      <rect x="140" y="676" width="7" height="7" rx="2"/>
    </g>

    <g fill="#d6dfe8">
      <circle cx="0" cy="204" r="8"/><circle cx="0" cy="270" r="8"/><circle cx="0" cy="336" r="8"/>
      <circle cx="0" cy="402" r="8"/><circle cx="0" cy="468" r="8"/><circle cx="0" cy="534" r="8"/>
      <circle cx="0" cy="600" r="8"/><circle cx="0" cy="666" r="8"/>
    </g>

    <rect x="56" y="288" width="120" height="96" rx="8" fill="#51789a" stroke="#355770" stroke-width="3"/>
    <line x1="56" y1="288" x2="176" y2="384" stroke="#355770" stroke-width="3"/>
  </g>
</svg>
